# xmcd
#
# Track frame offsets: 
#        150
#        18355
#        40353
#        57747
#        77034
#        98206
#        116292
#        136427
#        155048
#        173910
#        194202
#        215119
#        234557
#        253928
#        270468
#        290973
#
# Disc length: 4095 seconds
#
# Revision: 0
# Processed by: cddbd v1.5.2PL0 Copyright (c) Steve Scherf et al.
# Submitted via: ExactAudioCopy v0.99pb4
#
DISCID=fe0ffd10
DTITLE=Toni Braxton - Hong Kong 2CD2
DYEAR=2009
DGENRE=R&B
TTITLE0=Give U My U my heart
TTITLE1=Love Shoulda brought you home
TTITLE2=Another sad love song
TTITLE3=Breathe Again
TTITLE4=Seven whole days
TTITLE5=You mean the world to me
TTITLE6=How many ways
TTITLE7=You're makin' me high
TTITLE8=Let it flow
TTITLE9=Un-Break My heart
TTITLE10=Love me Some Him
TTITLE11=I Don't want to
TTITLE12=Just be a man about it
TTITLE13=Watchu Need
TTITLE14=The Little things
TTITLE15=Un-Break my heart - Soul-hex
EXTD=
EXTT0=
EXTT1=
EXTT2=
EXTT3=
EXTT4=
EXTT5=
EXTT6=
EXTT7=
EXTT8=
EXTT9=
EXTT10=
EXTT11=
EXTT12=
EXTT13=
EXTT14=
EXTT15=
PLAYORDER=
